<mxfile host="app.diagrams.net" modified="2020-12-27T13:16:18.864Z" agent="5.0 (Windows NT 10.0; Win64; x64) AppleWebKit/537.36 (KHTML, like Gecko) Chrome/86.0.4240.111 Safari/537.36" etag="1kERpV3I4cfXziX6BbwH" version="14.1.2" type="github">
  <diagram name="Page-1" id="2c0d36ab-eaac-3732-788b-9136903baeff">
    <mxGraphModel dx="2031" dy="1089" grid="0" gridSize="10" guides="1" tooltips="1" connect="1" arrows="1" fold="1" page="1" pageScale="1.5" pageWidth="1169" pageHeight="827" background="#ffffff" math="0" shadow="0">
      <root>
        <mxCell id="0" />
        <mxCell id="1" parent="0" />
        <mxCell id="65uhEoVjXPEzp-N-ucmc-123" value="&lt;font style=&quot;font-size: 22px&quot;&gt;在线考试系统&lt;/font&gt;" style="rounded=0;whiteSpace=wrap;html=1;" vertex="1" parent="1">
          <mxGeometry x="669" y="243" width="469" height="60" as="geometry" />
        </mxCell>
        <mxCell id="65uhEoVjXPEzp-N-ucmc-125" value="" style="rounded=0;whiteSpace=wrap;html=1;" vertex="1" parent="1">
          <mxGeometry x="303" y="438" width="251" height="60" as="geometry" />
        </mxCell>
        <mxCell id="65uhEoVjXPEzp-N-ucmc-126" value="" style="rounded=0;whiteSpace=wrap;html=1;" vertex="1" parent="1">
          <mxGeometry x="619" y="438" width="251" height="60" as="geometry" />
        </mxCell>
        <mxCell id="65uhEoVjXPEzp-N-ucmc-127" value="" style="rounded=0;whiteSpace=wrap;html=1;" vertex="1" parent="1">
          <mxGeometry x="962" y="438" width="251" height="60" as="geometry" />
        </mxCell>
        <mxCell id="65uhEoVjXPEzp-N-ucmc-128" value="" style="rounded=0;whiteSpace=wrap;html=1;" vertex="1" parent="1">
          <mxGeometry x="1305" y="438" width="251" height="60" as="geometry" />
        </mxCell>
        <mxCell id="65uhEoVjXPEzp-N-ucmc-130" value="" style="rounded=0;whiteSpace=wrap;html=1;" vertex="1" parent="1">
          <mxGeometry x="236" y="671" width="61" height="287" as="geometry" />
        </mxCell>
      </root>
    </mxGraphModel>
  </diagram>
</mxfile>
